<?xml version="1.0" encoding="UTF-8" standalone="no"?>
<!-- Created with Inkscape (http://www.inkscape.org/) -->

<svg
   xmlns:dc="http://purl.org/dc/elements/1.1/"
   xmlns:cc="http://creativecommons.org/ns#"
   xmlns:rdf="http://www.w3.org/1999/02/22-rdf-syntax-ns#"
   xmlns:svg="http://www.w3.org/2000/svg"
   xmlns="http://www.w3.org/2000/svg"
   xmlns:sodipodi="http://sodipodi.sourceforge.net/DTD/sodipodi-0.dtd"
   xmlns:inkscape="http://www.inkscape.org/namespaces/inkscape"
   width="136.52505mm"
   height="84.56308mm"
   viewBox="0 0 136.52505 84.56308"
   version="1.1"
   id="svg8"
   inkscape:version="0.92.1 r15371"
   sodipodi:docname="population2.svg">
  <defs
     id="defs2">
    <style
       id="style3680">.cls-1{fill:none;stroke:#078cd6;stroke-linecap:round;stroke-linejoin:round;stroke-width:2px;}</style>
  </defs>
  <sodipodi:namedview
     id="base"
     pagecolor="#ffffff"
     bordercolor="#666666"
     borderopacity="1.0"
     inkscape:pageopacity="0.0"
     inkscape:pageshadow="2"
     inkscape:zoom="0.35"
     inkscape:cx="-168.22257"
     inkscape:cy="548.76924"
     inkscape:document-units="mm"
     inkscape:current-layer="layer1"
     showgrid="false"
     fit-margin-top="0"
     fit-margin-left="0"
     fit-margin-right="0"
     fit-margin-bottom="0"
     inkscape:window-width="1536"
     inkscape:window-height="801"
     inkscape:window-x="-8"
     inkscape:window-y="-8"
     inkscape:window-maximized="1" />
  <metadata
     id="metadata5">
    <rdf:RDF>
      <cc:Work
         rdf:about="">
        <dc:format>image/svg+xml</dc:format>
        <dc:type
           rdf:resource="http://purl.org/dc/dcmitype/StillImage" />
        <dc:title></dc:title>
      </cc:Work>
    </rdf:RDF>
  </metadata>
  <g
     inkscape:label="Ebene 1"
     inkscape:groupmode="layer"
     id="layer1"
     transform="translate(-34.169029,-24.804148)">
    <g
       id="g3710"
       transform="matrix(2.4379389,0,0,2.4379389,24.417509,-11.223575)">
      <path
         id="path3686"
         d="m 38.15,21.7 c 0,3.39 -2.76,9.3 -6.15,9.3 -3.39,0 -6.15,-5.92 -6.15,-9.32 a 6.15,6.15 0 0 1 12.29,0 z"
         class="cls-1"
         inkscape:connector-curvature="0"
         style="fill:none;stroke:#078cd6;stroke-width:2px;stroke-linecap:round;stroke-linejoin:round" />
      <path
         id="path3688"
         d="m 19.34,48.3 a 12.66,12.66 0 0 1 25.32,0"
         class="cls-1"
         inkscape:connector-curvature="0"
         style="fill:none;stroke:#078cd6;stroke-width:2px;stroke-linecap:round;stroke-linejoin:round" />
      <path
         id="path3690"
         d="m 53.49,25.77 c 0,2.87 -2.33,8 -5.2,8 -2.87,0 -5.2,-5.17 -5.2,-8 a 5.205,5.205 0 0 1 10.41,0 z"
         class="cls-1"
         inkscape:connector-curvature="0"
         style="fill:none;stroke:#078cd6;stroke-width:2px;stroke-linecap:round;stroke-linejoin:round" />
      <path
         id="path3692"
         d="M 41.81,39.9 A 10.72,10.72 0 0 1 59,48.45"
         class="cls-1"
         inkscape:connector-curvature="0"
         style="fill:none;stroke:#078cd6;stroke-width:2px;stroke-linecap:round;stroke-linejoin:round" />
      <path
         id="path3694"
         d="m 10.51,25.77 c 0,2.87 2.33,8 5.2,8 2.87,0 5.2,-5.17 5.2,-8 a 5.205,5.205 0 0 0 -10.41,0 z"
         class="cls-1"
         inkscape:connector-curvature="0"
         style="fill:none;stroke:#078cd6;stroke-width:2px;stroke-linecap:round;stroke-linejoin:round" />
      <path
         id="path3696"
         d="M 22.19,39.9 A 10.72,10.72 0 0 0 5,48.45"
         class="cls-1"
         inkscape:connector-curvature="0"
         style="fill:none;stroke:#078cd6;stroke-width:2px;stroke-linecap:round;stroke-linejoin:round" />
    </g>
    <path
       style="fill:#000000;stroke-width:1.01015258"
       d="m 226.58807,275.69691 c -17.08332,-6.18822 -32.10657,-25.47249 -41.00398,-52.63388 -4.5554,-13.90638 -6.17985,-27.02474 -4.56468,-36.86214 3.52251,-21.45422 19.8579,-39.69776 41.02298,-45.81492 9.41186,-2.72023 23.43563,-2.33573 32.73266,0.89746 17.57642,6.11248 30.12008,18.83744 36.01491,36.53548 2.47762,7.43853 2.65306,9.04525 2.20607,20.20305 -0.59578,14.87203 -3.47854,25.41839 -11.32082,41.41625 -8.26598,16.86219 -18.53381,28.59283 -30.27699,34.59041 -6.57398,3.35752 -18.02176,4.12729 -24.81015,1.66829 z m 20.1114,-19.33594 c 13.61191,-8.4156 29.38608,-41.05815 29.38608,-60.81058 0,-15.47836 -9.05329,-29.69066 -23.11228,-36.28277 -4.94755,-2.31986 -6.97513,-2.66192 -15.77859,-2.66192 -8.95116,0 -10.80378,0.32455 -16.26808,2.84995 -7.45173,3.4439 -15.32996,11.15571 -19.27551,18.86833 -2.65748,5.19475 -2.84006,6.34368 -2.80918,17.67767 0.03,11.02928 0.33178,12.98677 3.34766,21.71828 5.11284,14.80259 10.75675,24.66439 18.86679,32.96663 9.99563,10.2325 16.08946,11.58098 25.64311,5.67441 z"
       id="path3712"
       inkscape:connector-curvature="0"
       transform="scale(0.26458333)" />
    <path
       style="fill:#000000;stroke-width:1.01015258"
       d="m 133.5665,411.38456 c -4.32183,-3.31821 -4.9224,-9.34613 -2.44993,-24.59037 6.42594,-39.61977 33.94941,-71.85842 72.238,-84.61341 13.53852,-4.51005 25.62069,-6.11782 39.90102,-5.30962 17.13283,0.96965 34.36066,6.01909 47.43012,13.90164 l 6.67073,4.02331 6.78969,-5.99233 c 47.87695,-42.25454 119.14432,-41.92831 167.02886,0.76457 l 5.68582,5.06938 7.7294,-4.40478 c 32.32713,-18.42242 74.95552,-17.94158 107.16801,1.20882 30.30733,18.01779 50.17755,50.31229 52.65674,85.58152 l 0.66509,9.46176 -3.09717,3.09716 c -5.33967,5.33967 -12.30106,3.51604 -14.31935,-3.75115 -0.57408,-2.06706 -1.04632,-6.08649 -1.04941,-8.93207 -0.008,-7.41252 -4.37641,-23.6039 -8.76379,-32.48328 -12.10922,-24.50716 -33.99376,-41.66141 -61.71281,-48.37374 -9.20004,-2.22785 -28.72184,-2.20512 -38.12044,0.0444 -8.95271,2.14277 -18.8435,5.9163 -24.96276,9.52377 l -4.75972,2.80599 3.04942,4.50345 c 11.87864,17.54261 19.54621,40.43245 20.80735,62.11583 0.56209,9.66416 0.47736,10.26279 -1.82316,12.88053 -1.32696,1.50992 -3.83218,3.01737 -5.56716,3.34989 -2.56033,0.49069 -3.72337,0.0624 -6.17469,-2.27393 -2.86259,-2.72827 -3.07911,-3.51471 -4.14885,-15.06994 -2.42903,-26.23803 -12.04652,-47.51177 -29.82115,-65.96391 -36.33674,-37.72176 -93.91826,-43.94586 -137.40613,-14.85251 -28.06337,18.77438 -45.06127,48.48606 -47.69453,83.36827 -0.79479,10.52841 -2.53499,13.72585 -8.04451,14.78094 -2.44516,0.46825 -3.80772,-0.003 -6.45707,-2.23203 l -3.35795,-2.82553 0.60137,-11.65864 c 1.01049,-19.58989 7.26461,-39.59246 17.9092,-57.27895 6.07045,-10.08635 6.26269,-9.47894 -4.58627,-14.49066 -21.12745,-9.75989 -43.6243,-11.27169 -65.42887,-4.39685 -11.07504,3.49189 -18.03539,7.11115 -27.74217,14.42543 -19.79371,14.915 -32.13427,37.62184 -34.82856,64.0851 -0.95768,9.40627 -1.50477,11.54778 -3.44609,13.4891 -2.55659,2.55658 -7.89167,3.0679 -10.56828,1.01287 z"
       id="path3714"
       inkscape:connector-curvature="0"
       transform="scale(0.26458333)" />
    <path
       style="fill:#000000;stroke-width:1.01015258"
       d="m 377.28707,250.48715 c -21.88141,-5.8885 -44.10759,-36.03931 -52.84835,-71.69112 -3.28841,-13.41278 -3.12953,-28.68424 0.40527,-38.95519 7.07774,-20.56557 22.56572,-36.1711 42.15529,-42.475261 9.18222,-2.954952 25.48306,-3.623164 34.85026,-1.428598 12.09077,2.832646 21.11873,8.004459 30.91676,17.711159 9.53961,9.45069 14.5371,17.99545 17.73921,30.33066 6.96348,26.8248 -9.11393,72.38219 -33.39623,94.63251 -12.75744,11.68988 -25.92322,15.6162 -39.82221,11.87584 z m 17.32574,-17.67619 c 17.86116,-5.63851 40.10701,-46.73629 40.0547,-73.99845 -0.0547,-28.49856 -26.78101,-51.09462 -54.78879,-46.32181 -23.76003,4.04895 -40.16791,23.04446 -40.14648,46.47784 0.0211,23.03459 15.63541,56.72757 32.02327,69.10052 8.12682,6.13581 14.35132,7.42712 22.8573,4.7419 z"
       id="path3716"
       inkscape:connector-curvature="0"
       transform="scale(0.26458333)" />
    <path
       style="fill:#000000;stroke-width:1.01015258"
       d="m 527.45613,275.97173 c -17.80545,-6.65256 -33.23892,-26.61602 -42.1693,-54.54669 -8.78974,-27.49084 -4.47872,-50.27252 12.68526,-67.03559 6.31274,-6.16528 15.61207,-11.57773 24.06034,-14.00372 7.98489,-2.29294 22.39616,-2.28848 30.35511,0.009 18.90477,5.45809 33.79546,20.33563 39.47896,39.44409 6.18283,20.78727 -3.51434,55.78482 -21.83178,78.7919 -9.53386,11.97473 -19.48002,17.80859 -31.30951,18.36442 -4.7719,0.22421 -8.94305,-0.15473 -11.26908,-1.0238 z m 14.50987,-16.877 c 11.73727,-3.25982 26.75428,-26.14209 32.19758,-49.06128 3.0827,-12.97983 2.50189,-23.01945 -1.84199,-31.8395 -3.94347,-8.00704 -11.17088,-15.10182 -19.23396,-18.88098 -5.05802,-2.3707 -7.03196,-2.70727 -15.87765,-2.70727 -8.84568,0 -10.81962,0.33657 -15.87764,2.70727 -8.00826,3.75347 -15.29357,10.87963 -19.16758,18.74884 -2.6017,5.28481 -3.29021,8.08618 -3.64398,14.82644 -1.2007,22.87629 15.63491,57.44345 31.59765,64.87682 5.74698,2.6762 6.63882,2.77629 11.84757,1.32966 z"
       id="path3718"
       inkscape:connector-curvature="0"
       transform="scale(0.26458333)" />
  </g>
</svg>
