<?xml version="1.0" encoding="UTF-8" standalone="no"?>
<!-- Created with Inkscape (http://www.inkscape.org/) -->

<svg
   xmlns:dc="http://purl.org/dc/elements/1.1/"
   xmlns:cc="http://creativecommons.org/ns#"
   xmlns:rdf="http://www.w3.org/1999/02/22-rdf-syntax-ns#"
   xmlns:svg="http://www.w3.org/2000/svg"
   xmlns="http://www.w3.org/2000/svg"
   xmlns:sodipodi="http://sodipodi.sourceforge.net/DTD/sodipodi-0.dtd"
   xmlns:inkscape="http://www.inkscape.org/namespaces/inkscape"
   width="67.496559mm"
   height="52.55619mm"
   viewBox="0 0 67.496559 52.55619"
   version="1.1"
   id="svg8"
   inkscape:version="0.92.1 r15371"
   sodipodi:docname="population1.svg">
  <defs
     id="defs2" />
  <sodipodi:namedview
     id="base"
     pagecolor="#ffffff"
     bordercolor="#666666"
     borderopacity="1.0"
     inkscape:pageopacity="0.0"
     inkscape:pageshadow="2"
     inkscape:zoom="1.979899"
     inkscape:cx="231.78699"
     inkscape:cy="66.754301"
     inkscape:document-units="mm"
     inkscape:current-layer="layer1"
     showgrid="false"
     fit-margin-top="0"
     fit-margin-left="0"
     fit-margin-right="0"
     fit-margin-bottom="0"
     inkscape:window-width="1536"
     inkscape:window-height="801"
     inkscape:window-x="-8"
     inkscape:window-y="-8"
     inkscape:window-maximized="1" />
  <metadata
     id="metadata5">
    <rdf:RDF>
      <cc:Work
         rdf:about="">
        <dc:format>image/svg+xml</dc:format>
        <dc:type
           rdf:resource="http://purl.org/dc/dcmitype/StillImage" />
        <dc:title></dc:title>
      </cc:Work>
    </rdf:RDF>
  </metadata>
  <g
     inkscape:label="Layer 1"
     inkscape:groupmode="layer"
     id="layer1"
     transform="translate(-56.698147,-106.94809)">
    <g
       transform="translate(-12.095237,18.672024)"
       id="layer1-9"
       inkscape:label="Layer 1">
      <g
         inkscape:label="Layer 1"
         id="layer1-0"
         transform="translate(-30.277611,-68.520215)">
        <g
           id="g4487"
           transform="matrix(3.735092,0,0,3.735092,78.777111,136.79823)">
          <path
             inkscape:connector-curvature="0"
             d="m 9,9 c 0,-1.7 1.3,-3 3,-3 1.7,0 3,1.3 3,3 0,1.7 -1.3,3 -3,3 -1.7,0 -3,-1.3 -3,-3 z m 3,5 C 7.4,14 6,17.3 6,17.3 V 19 h 12 v -1.7 c 0,0 -1.4,-3.3 -6,-3.3 z"
             id="path4485" />
        </g>
        <g
           id="g4497"
           transform="matrix(3.735092,0,0,3.735092,78.777111,136.79823)">
          <g
             id="g4491">
            <circle
               cx="18.5"
               cy="8.5"
               r="2.5"
               id="circle4489" />
          </g>
          <g
             id="g4495">
            <path
               inkscape:connector-curvature="0"
               d="m 18.5,13 c -1.2,0 -2.1,0.3 -2.8,0.8 2.3,1.1 3.2,3 3.2,3.2 v 0.1 H 23 V 15.8 C 23,15.7 21.9,13 18.5,13 Z"
               id="path4493" />
          </g>
        </g>
        <g
           id="g4507"
           transform="matrix(3.735092,0,0,3.735092,78.777111,136.79823)">
          <g
             id="g4501">
            <circle
               cx="18.5"
               cy="8.5"
               r="2.5"
               id="circle4499" />
          </g>
          <g
             id="g4505">
            <path
               inkscape:connector-curvature="0"
               d="m 18.5,13 c -1.2,0 -2.1,0.3 -2.8,0.8 2.3,1.1 3.2,3 3.2,3.2 v 0.1 H 23 V 15.8 C 23,15.7 21.9,13 18.5,13 Z"
               id="path4503" />
          </g>
        </g>
      </g>
    </g>
  </g>
</svg>
