<?xml version="1.0" encoding="UTF-8" standalone="no"?>
<!-- Created with Inkscape (http://www.inkscape.org/) -->

<svg
   xmlns:dc="http://purl.org/dc/elements/1.1/"
   xmlns:cc="http://creativecommons.org/ns#"
   xmlns:rdf="http://www.w3.org/1999/02/22-rdf-syntax-ns#"
   xmlns:svg="http://www.w3.org/2000/svg"
   xmlns="http://www.w3.org/2000/svg"
   xmlns:sodipodi="http://sodipodi.sourceforge.net/DTD/sodipodi-0.dtd"
   xmlns:inkscape="http://www.inkscape.org/namespaces/inkscape"
   width="119.5443mm"
   height="73.979744mm"
   viewBox="0 0 119.5443 73.979744"
   version="1.1"
   id="svg8"
   inkscape:version="0.92.1 r15371"
   sodipodi:docname="population2_base.svg">
  <defs
     id="defs2">
    <style
       id="style3680">.cls-1{fill:none;stroke:#078cd6;stroke-linecap:round;stroke-linejoin:round;stroke-width:2px;}</style>
  </defs>
  <sodipodi:namedview
     id="base"
     pagecolor="#ffffff"
     bordercolor="#666666"
     borderopacity="1.0"
     inkscape:pageopacity="0.0"
     inkscape:pageshadow="2"
     inkscape:zoom="0.49497475"
     inkscape:cx="-396.71956"
     inkscape:cy="356.8123"
     inkscape:document-units="mm"
     inkscape:current-layer="layer1"
     showgrid="false"
     inkscape:window-width="1536"
     inkscape:window-height="801"
     inkscape:window-x="-8"
     inkscape:window-y="-8"
     inkscape:window-maximized="1"
     fit-margin-top="0"
     fit-margin-left="0"
     fit-margin-right="0"
     fit-margin-bottom="0" />
  <metadata
     id="metadata5">
    <rdf:RDF>
      <cc:Work
         rdf:about="">
        <dc:format>image/svg+xml</dc:format>
        <dc:type
           rdf:resource="http://purl.org/dc/dcmitype/StillImage" />
        <dc:title></dc:title>
      </cc:Work>
    </rdf:RDF>
  </metadata>
  <g
     inkscape:label="Layer 1"
     inkscape:groupmode="layer"
     id="layer1"
     transform="translate(-40.648728,-51.267518)">
    <g
       id="g3710"
       transform="matrix(2.1328232,0,0,2.1328232,32.117641,19.748777)">
      <path
         id="path3686"
         d="m 38.15,21.7 c 0,3.39 -2.76,9.3 -6.15,9.3 -3.39,0 -6.15,-5.92 -6.15,-9.32 a 6.15,6.15 0 0 1 12.29,0 z"
         class="cls-1"
         inkscape:connector-curvature="0"
         style="fill:none;stroke:#078cd6;stroke-width:2px;stroke-linecap:round;stroke-linejoin:round" />
      <path
         id="path3688"
         d="m 19.34,48.3 a 12.66,12.66 0 0 1 25.32,0"
         class="cls-1"
         inkscape:connector-curvature="0"
         style="fill:none;stroke:#078cd6;stroke-width:2px;stroke-linecap:round;stroke-linejoin:round" />
      <path
         id="path3690"
         d="m 53.49,25.77 c 0,2.87 -2.33,8 -5.2,8 -2.87,0 -5.2,-5.17 -5.2,-8 a 5.205,5.205 0 0 1 10.41,0 z"
         class="cls-1"
         inkscape:connector-curvature="0"
         style="fill:none;stroke:#078cd6;stroke-width:2px;stroke-linecap:round;stroke-linejoin:round" />
      <path
         id="path3692"
         d="M 41.81,39.9 A 10.72,10.72 0 0 1 59,48.45"
         class="cls-1"
         inkscape:connector-curvature="0"
         style="fill:none;stroke:#078cd6;stroke-width:2px;stroke-linecap:round;stroke-linejoin:round" />
      <path
         id="path3694"
         d="m 10.51,25.77 c 0,2.87 2.33,8 5.2,8 2.87,0 5.2,-5.17 5.2,-8 a 5.205,5.205 0 0 0 -10.41,0 z"
         class="cls-1"
         inkscape:connector-curvature="0"
         style="fill:none;stroke:#078cd6;stroke-width:2px;stroke-linecap:round;stroke-linejoin:round" />
      <path
         id="path3696"
         d="M 22.19,39.9 A 10.72,10.72 0 0 0 5,48.45"
         class="cls-1"
         inkscape:connector-curvature="0"
         style="fill:none;stroke:#078cd6;stroke-width:2px;stroke-linecap:round;stroke-linejoin:round" />
    </g>
    <path
       style="fill:#000000;stroke:#000000;stroke-width:0.23381992;stroke-opacity:1"
       d="M 63.204378,93.383223 C 59.250103,91.950836 55.772673,87.487108 53.71319,81.200064 52.658752,77.981155 52.282741,74.94465 52.656604,72.667588 c 0.815355,-4.966006 4.596507,-9.188837 9.495586,-10.604775 2.178562,-0.629651 5.424642,-0.540651 7.576625,0.207735 4.068412,1.414855 6.971892,4.3603 8.336368,8.456864 0.573494,1.721796 0.614103,2.093703 0.510638,4.676398 -0.137905,3.442427 -0.805177,5.883592 -2.620429,9.586615 -1.913325,3.90309 -4.290019,6.61838 -7.008211,8.006639 -1.521679,0.777165 -4.171495,0.955343 -5.742803,0.386159 z m 4.655183,-4.475688 c 3.150748,-1.947958 6.801993,-9.503726 6.801993,-14.075819 0,-3.582775 -2.095564,-6.872494 -5.349797,-8.398369 -1.145209,-0.536978 -1.614532,-0.616155 -3.652268,-0.616155 -2.071925,0 -2.50075,0.07512 -3.765571,0.659678 -1.724851,0.797159 -3.548425,2.582211 -4.461701,4.36745 -0.615126,1.202429 -0.657388,1.468371 -0.65024,4.091849 0.0069,2.552946 0.0768,3.006046 0.774882,5.027128 1.183469,3.426354 2.489864,5.709064 4.367094,7.630783 2.313688,2.368515 3.724226,2.680648 5.935608,1.313455 z"
       id="path3712"
       inkscape:connector-curvature="0" />
    <path
       style="fill:#000000;stroke:#000000;stroke-width:0.23381992;stroke-opacity:1"
       d="m 41.672684,124.79083 c -1.000373,-0.76807 -1.139387,-2.16335 -0.567085,-5.69193 1.487412,-9.17078 7.858267,-16.63306 16.720923,-19.585459 3.13376,-1.04394 5.930418,-1.416091 9.235885,-1.229017 3.965734,0.224445 7.953458,1.393238 10.978645,3.217816 l 1.544073,0.93127 1.571609,-1.38704 c 11.082073,-9.780658 27.578316,-9.705145 38.662146,0.17697 l 1.31609,1.17341 1.78913,-1.01957 c 7.48276,-4.264239 17.34994,-4.152939 24.80617,0.2798 7.01523,4.17058 11.61459,11.64578 12.18845,19.80955 l 0.15395,2.19011 -0.71691,0.7169 c -1.23597,1.23597 -2.84732,0.81385 -3.31449,-0.86828 -0.13289,-0.47846 -0.2422,-1.40884 -0.24291,-2.0675 -0.002,-1.71578 -1.01301,-5.4636 -2.02856,-7.51891 -2.80292,-5.67267 -7.86853,-9.64336 -14.28465,-11.19706 -2.12954,-0.51568 -6.64824,-0.51042 -8.82374,0.0103 -2.07228,0.49599 -4.3617,1.36944 -5.77813,2.20447 l -1.10173,0.6495 0.70585,1.04241 c 2.74955,4.06059 4.52436,9.3589 4.81628,14.37795 0.1301,2.23696 0.11049,2.37552 -0.42201,2.98145 -0.30715,0.3495 -0.88703,0.69843 -1.28863,0.7754 -0.59264,0.11358 -0.86185,0.0144 -1.42925,-0.52635 -0.66261,-0.63151 -0.71273,-0.81355 -0.96034,-3.48823 -0.56225,-6.07332 -2.78841,-10.99755 -6.9027,-15.26866 -8.41086,-8.731458 -21.739238,-10.17215 -31.805371,-3.43792 -6.495826,4.34571 -10.430328,11.22307 -11.039848,19.29725 -0.18397,2.43701 -0.586774,3.17712 -1.862062,3.42134 -0.565981,0.10839 -0.881373,-6.9e-4 -1.494617,-0.51665 l -0.777265,-0.65402 0.139199,-2.69863 c 0.233898,-4.53447 1.681539,-9.16446 4.145441,-13.25835 1.405126,-2.33468 1.449624,-2.19409 -1.061583,-3.35415 -4.890369,-2.25912 -10.097713,-2.60906 -15.144814,-1.01774 -2.563539,0.80827 -4.17465,1.64602 -6.421478,3.33905 -4.581648,3.45238 -7.438116,8.70833 -8.061763,14.83378 -0.221674,2.17726 -0.348309,2.67296 -0.797666,3.12232 -0.591774,0.59176 -1.826684,0.71012 -2.446239,0.23445 z"
       id="path3714"
       inkscape:connector-curvature="0" />
    <path
       style="fill:#000000;stroke:#000000;stroke-width:0.23381992;stroke-opacity:1"
       d="m 98.08666,87.547922 c -5.064888,-1.36301 -10.209579,-8.342015 -12.232802,-16.594336 -0.761168,-3.104655 -0.724392,-6.639538 0.09381,-9.016954 1.638283,-4.760311 5.223284,-8.372521 9.75768,-9.831745 2.125408,-0.683982 5.898552,-0.838653 8.066782,-0.330677 2.79864,0.655672 4.88834,1.852791 7.15629,4.0996 2.20814,2.18755 3.3649,4.165405 4.1061,7.020635 1.61183,6.209134 -2.1096,16.754298 -7.73023,21.904578 -2.95295,2.705855 -6.00044,3.61468 -9.217628,2.748899 z m 4.01038,-4.091506 c 4.13432,-1.305145 9.28356,-10.818044 9.27146,-17.128414 -0.0127,-6.596558 -6.199,-11.826866 -12.681951,-10.722104 -5.499732,0.93721 -9.297662,5.334099 -9.292702,10.758221 0.0049,5.331814 3.619127,13.130725 7.412423,15.99469 1.881115,1.420255 3.32189,1.719155 5.29077,1.097607 z"
       id="path3716"
       inkscape:connector-curvature="0" />
    <path
       style="fill:#000000;stroke:#000000;stroke-width:0.23381992;stroke-opacity:1"
       d="m 132.84627,93.446835 c -4.12143,-1.539867 -7.69381,-6.160807 -9.76093,-12.625917 -2.03456,-6.363302 -1.03668,-11.636575 2.93626,-15.516721 1.46121,-1.427077 3.61372,-2.679896 5.56924,-3.24144 1.84827,-0.530746 5.18404,-0.529714 7.0263,0.0021 4.37588,1.263383 7.82263,4.707086 9.13819,9.130119 1.43114,4.811628 -0.81346,12.912507 -5.0534,18.237953 -2.2068,2.77179 -4.50904,4.122153 -7.24721,4.250811 -1.10455,0.0519 -2.07005,-0.03581 -2.60845,-0.236979 z m 3.3586,-3.906517 c 2.71682,-0.75455 6.19281,-6.051107 7.45277,-11.35621 0.71355,-3.00444 0.57911,-5.32831 -0.42637,-7.369886 -0.91279,-1.853388 -2.58572,-3.495616 -4.45208,-4.370378 -1.17078,-0.548746 -1.62769,-0.626652 -3.6752,-0.626652 -2.04751,0 -2.50442,0.07791 -3.67519,0.626652 -1.85368,0.868815 -3.54001,2.518307 -4.43672,4.339792 -0.60222,1.223274 -0.76159,1.871707 -0.84347,3.431875 -0.27793,5.295172 3.61901,13.296429 7.3139,15.017031 1.33025,0.619459 1.53669,0.642627 2.74236,0.307776 z"
       id="path3718"
       inkscape:connector-curvature="0" />
    <path
       style="fill:#000000;fill-opacity:1;stroke:#000000;stroke-width:3.97289968;stroke-linecap:butt;stroke-linejoin:miter;stroke-miterlimit:4;stroke-dasharray:none;stroke-opacity:1"
       d="m 157.71792,123.20857 c -14.16337,-0.003 -26.5815,-0.006 -37.46935,-0.0148 -8.28577,-0.002 -15.68532,-0.003 -22.293416,-0.004 -54.828392,-0.017 -55.173397,-0.006 -55.173397,-0.006"
       id="path3720-0"
       inkscape:connector-curvature="0"
       sodipodi:nodetypes="cssc" />
    <path
       style="fill:none;fill-opacity:1;stroke:none;stroke-width:0.54535711;stroke-miterlimit:4;stroke-dasharray:none;stroke-opacity:1"
       d="m 41.304138,124.57166 c -0.332391,-0.33239 -0.541644,-0.74281 -0.60136,-1.17946 -0.05179,-0.37871 0.01066,-2.07041 0.110048,-2.98072 0.483424,-4.42796 2.153152,-8.6864 4.799192,-12.23974 4.054077,-5.44418 10.167878,-9.0158 16.887531,-9.865528 1.279263,-0.161769 2.260973,-0.210161 3.661645,-0.180501 2.139498,0.04531 3.822777,0.275032 5.811383,0.793107 1.236916,0.322241 3.270829,1.041037 3.85123,1.361042 0.279717,0.15422 0.07998,0.0894 -0.685679,-0.2225 -3.898349,-1.588056 -8.562414,-2.186364 -12.756697,-1.636432 -2.15306,0.282297 -4.635406,0.990309 -6.78232,1.934442 -5.335599,2.3464 -9.635644,6.43254 -12.206093,11.59889 -1.290601,2.59398 -2.033528,5.06507 -2.457419,8.17374 -0.221364,1.6234 -0.237009,2.70032 -0.04986,3.43207 0.115071,0.44993 0.285849,0.76347 0.576863,1.05911 0.126425,0.12844 0.205724,0.23352 0.176221,0.23352 -0.0295,0 -0.180113,-0.12647 -0.334687,-0.28104 z"
       id="path4548"
       inkscape:connector-curvature="0" />
    <path
       style="fill:#000000;fill-opacity:1;stroke:#000000;stroke-width:0.54535711;stroke-miterlimit:4;stroke-dasharray:none;stroke-opacity:1"
       d=""
       id="path4550"
       inkscape:connector-curvature="0" />
  </g>
</svg>
